<svg width="24" height="24" viewBox="0 0 24 24" fill="none" xmlns="http://www.w3.org/2000/svg">
<path fill-rule="evenodd" clip-rule="evenodd" d="M15.5703 20.8063C14.4681 21.2536 13.2628 21.5 12 21.5C6.75329 21.5 2.5 17.2467 2.5 12C2.5 6.75329 6.75329 2.5 12 2.5C12.9023 2.5 13.7879 2.62594 14.6379 2.87116L14.9999 2.98353L14.6844 3.93243C13.8265 3.64714 12.9236 3.5 12 3.5C7.30558 3.5 3.5 7.30558 3.5 12C3.5 16.6944 7.30558 20.5 12 20.5C13.1748 20.5 14.2939 20.2617 15.3116 19.8307L15.5703 20.8063ZM19.873 15.21C20.2772 14.2196 20.5 13.1358 20.5 12C20.8448 12.0011 20.8617 12.0002 20.8711 11.9997C20.8777 11.9993 20.8807 11.9992 20.9883 12C21.0799 12.0007 21.1005 12.0009 21.1212 12.0008L21.1409 12.0007C21.1753 12.0005 21.2441 12 21.5 12C21.5 13.2342 21.2647 14.4134 20.8364 15.4952L19.873 15.21ZM19.3973 6.34386L20.1213 7.03366L19.3549 7.83781L10.67 16.4769L6.63264 12.1043L7.36736 11.4259L10.7 15.035L18.6403 7.13842L19.3973 6.34386ZM17.0276 18.8712L17.5723 19.7099L16.7336 20.2546L16.189 19.4159L17.0276 18.8712ZM19.5058 16.0287L20.3445 16.5734L19.7998 17.4121L18.9611 16.8674L19.5058 16.0287ZM18.4549 17.5621L19.162 18.2692L18.4549 18.9763L17.7478 18.2692L18.4549 17.5621Z" fill="#CF0209"/>
</svg>
