<svg width="24" height="24" viewBox="0 0 24 24" fill="none" xmlns="http://www.w3.org/2000/svg">
<path fill-rule="evenodd" clip-rule="evenodd" d="M16.4299 3.96227C16.9082 4.23841 17.0721 4.85 16.7959 5.32829L9.28142 18.3438L9.27346 18.3392C9.14895 18.4999 8.97766 18.6197 8.78162 18.681L6.66776 19.3424C6.14067 19.5073 5.5797 19.2136 5.4148 18.6866L5.39337 18.6066L4.90916 16.4453C4.86425 16.2448 4.88237 16.0366 4.95925 15.8484L4.95129 15.8438L12.4658 2.82829C12.742 2.35 13.3536 2.18612 13.8318 2.46227L16.4299 3.96227ZM5.92517 16.4061L6.36918 18.388L8.30755 17.7816L5.92517 16.4061ZM8.9154 16.9778L6.31732 15.4778L13.3318 3.32829L15.9299 4.82829L8.9154 16.9778ZM4 21.0006H14V22.0006H4V21.0006ZM17 21.0006H18V22.0006H17V21.0006ZM15 21.0006H16V22.0006H15V21.0006ZM19 21.0006H20V22.0006H19V21.0006Z" fill="#CF0209"/>
</svg>
