<svg width="24" height="24" viewBox="0 0 24 24" fill="none" xmlns="http://www.w3.org/2000/svg">
<path fill-rule="evenodd" clip-rule="evenodd" d="M5.3949 10.7455L12.1526 4L12.888 4.82848L6.108 11.5976C5.92716 11.8006 5.91471 12.1077 6.06543 12.3249L6.12959 12.4018L12.8887 19.1729L12.152 20L5.39287 13.2289C4.78478 12.6197 4.72332 11.6271 5.22702 10.9412L5.32809 10.8163L5.3949 10.7455ZM11.6171 10.7455L18.3749 4L19.1102 4.82848L12.3302 11.5976C12.1494 11.8006 12.1369 12.1077 12.2877 12.3249L12.3518 12.4018L19.1109 19.1729L18.3742 20L11.6151 13.2289C11.007 12.6197 10.9455 11.6271 11.4492 10.9412L11.5503 10.8163L11.6171 10.7455Z" fill="#CF0209"/>
</svg>
