<svg width="24" height="24" viewBox="0 0 24 24" fill="none" xmlns="http://www.w3.org/2000/svg">
<path fill-rule="evenodd" clip-rule="evenodd" d="M8.33653 3.51481C7.79382 2.98238 6.92527 2.93701 6.32813 3.43361C6.24833 3.49998 6.17563 3.57445 6.11121 3.65583L3.14453 7.40306L3.92857 8.02377L6.76815 4.43707V21H7.76815V4.38318L10.8036 8.03312L11.5724 7.39371L8.44055 3.62778L8.33653 3.51481ZM15.9698 19.5251L15.9997 9H16.9997L16.9694 19.6533L20.0352 15.9669L20.804 16.6063L17.6721 20.3722L17.5681 20.4852C17.0254 21.0176 16.1569 21.063 15.5597 20.5664C15.4799 20.5 15.4072 20.4256 15.3428 20.3442L12.3761 16.5969L13.1602 15.9762L15.9698 19.5251ZM15.9997 3H16.9997V4H15.9997V3ZM15.9997 7H16.9997V8H15.9997V7ZM16.9997 5H15.9997V6H16.9997V5Z" fill="#CF0209"/>
</svg>
