<svg width="24" height="24" viewBox="0 0 24 24" fill="none" xmlns="http://www.w3.org/2000/svg">
<path fill-rule="evenodd" clip-rule="evenodd" d="M14 2C15.1046 2 16 2.89543 16 4V5H19V6H5V5H9V4C9 2.89543 9.89543 2 11 2H14ZM10.0067 3.88338L10 4V5H15V4C15 3.48716 14.614 3.06449 14.1166 3.00673L14 3H11C10.4872 3 10.0645 3.38604 10.0067 3.88338ZM5.04726 19.1688L5.0425 19V8.02439H6.0425V19C6.0425 19.7959 6.50571 20.4178 7.05137 20.4925L7.16149 20.5H16.881C17.436 20.5 17.9339 19.9278 17.9939 19.1567L18 19V13.9706H19V19C19 20.3035 18.1526 21.4046 17.0291 21.4941L16.881 21.5H7.16149C6.01502 21.5 5.11987 20.4532 5.04726 19.1688ZM19 8H18V9H19V8ZM18 10H19V11H18V10ZM18 12H19V13H18V12ZM9.5 8V19H8.5V8H9.5ZM12.5 19V8H11.5V19H12.5ZM15.5 19V8H14.5V19H15.5Z" fill="#CF0209"/>
</svg>
