<svg width="24" height="24" viewBox="0 0 24 24" fill="none" xmlns="http://www.w3.org/2000/svg">
<path fill-rule="evenodd" clip-rule="evenodd" d="M12.3824 10.7455L5.62469 4L4.88937 4.82848L11.6693 11.5976C11.8502 11.8006 11.8626 12.1077 11.7119 12.3249L11.6478 12.4018L4.88867 19.1729L5.62539 20L12.3845 13.2289C12.9926 12.6197 13.054 11.6271 12.5503 10.9412L12.4493 10.8163L12.3824 10.7455ZM18.6047 10.7455L11.8469 4L11.1116 4.82848L17.8916 11.5976C18.0724 11.8006 18.0849 12.1077 17.9341 12.3249L17.87 12.4018L11.1109 19.1729L11.8476 20L18.6067 13.2289C19.2148 12.6197 19.2762 11.6271 18.7725 10.9412L18.6715 10.8163L18.6047 10.7455Z" fill="#CF0209"/>
</svg>
