<svg width="24" height="24" viewBox="0 0 24 24" fill="none" xmlns="http://www.w3.org/2000/svg">
<path fill-rule="evenodd" clip-rule="evenodd" d="M15.2079 4.78716C14.0902 3.63766 12.6303 2.86986 11.0083 2.61297C6.9172 1.96499 3.07539 4.75623 2.42742 8.84737C1.77945 12.9385 4.57068 16.7803 8.66182 17.4283C10.9231 17.7864 13.1798 17.0981 14.8503 15.5974L14.8951 15.5569L20.2699 19.9159L20.8946 19.135L15.5907 14.8309C16.1386 14.1766 16.5732 13.4304 16.8716 12.6202C17.0406 12.1613 17.1651 11.6843 17.2427 11.1939L16.2551 11.0375L16.1969 11.3545C16.1312 11.6691 16.0431 11.9763 15.9332 12.2746C15.5674 13.2679 14.965 14.1502 14.1821 14.8535C12.7333 16.1549 10.7788 16.7511 8.81826 16.4406C5.2726 15.879 2.85353 12.5495 3.41511 9.0038C3.97668 5.45815 7.30625 3.03908 10.8519 3.60065C12.3522 3.83827 13.6904 4.57877 14.681 5.68815L15.4269 5.02211L15.2079 4.78716ZM15.9178 5.63837L15.0606 6.15341L15.5756 7.01058L16.4328 6.49554L15.9178 5.63837ZM16.9345 7.49866L15.9834 7.80768L16.2925 8.75874L17.2435 8.44972L16.9345 7.49866ZM17.3129 9.391L16.3154 9.46076L16.3851 10.4583L17.3827 10.3886L17.3129 9.391ZM11.7725 8.8068C11.7725 7.69704 10.9786 6.97673 9.98977 7.00057C9.02324 7.02389 8.23535 7.75134 8.23535 8.80401H9.41151L9.42067 8.68124C9.46897 8.36937 9.70378 8.18397 10.0181 8.17639C10.3651 8.16802 10.5964 8.37789 10.5964 8.80401C10.5955 8.99743 10.5738 9.02806 10.3922 9.14097L10.1695 9.28318C9.81415 9.53163 9.6331 9.80566 9.6331 10.2789V11.3241H10.8093L10.8093 10.2639C10.8104 10.2622 10.8126 10.2604 10.8166 10.2578L10.9261 10.1933L11.1547 10.0454C11.5576 9.75539 11.7697 9.39702 11.7725 8.8068ZM10.8656 12.5006H9.68947V13.6768H10.8656V12.5006Z" fill="#CF0209"/>
</svg>
