<svg width="24" height="24" viewBox="0 0 24 24" fill="none" xmlns="http://www.w3.org/2000/svg">
<path fill-rule="evenodd" clip-rule="evenodd" d="M11.0083 2.61297C12.6303 2.86986 14.0902 3.63766 15.2079 4.78716L15.4269 5.02211L14.681 5.68815C13.6904 4.57877 12.3522 3.83827 10.8519 3.60065C7.30625 3.03908 3.97668 5.45815 3.41511 9.0038C2.85353 12.5495 5.2726 15.879 8.81826 16.4406C10.7788 16.7511 12.7333 16.1549 14.1821 14.8535C14.965 14.1502 15.5674 13.2679 15.9332 12.2746C16.0431 11.9763 16.1312 11.6691 16.1969 11.3545L16.2551 11.0375L17.2427 11.1939C17.1651 11.6843 17.0406 12.1613 16.8716 12.6202C16.5732 13.4304 16.1386 14.1766 15.5907 14.8309L20.8946 19.135L20.2699 19.9159L14.8951 15.5569L14.8503 15.5974C13.1798 17.0981 10.9231 17.7864 8.66182 17.4283C4.57068 16.7803 1.77945 12.9385 2.42742 8.84737C3.07539 4.75623 6.9172 1.96499 11.0083 2.61297ZM15.0606 6.15341L15.9178 5.63837L16.4328 6.49554L15.5756 7.01058L15.0606 6.15341ZM15.9834 7.80768L16.9345 7.49866L17.2435 8.44972L16.2925 8.75874L15.9834 7.80768ZM16.3154 9.46076L17.3129 9.391L17.3827 10.3886L16.3851 10.4583L16.3154 9.46076Z" fill="#CF0209"/>
</svg>
