<svg width="24" height="24" viewBox="0 0 24 24" fill="none" xmlns="http://www.w3.org/2000/svg">
<path fill-rule="evenodd" clip-rule="evenodd" d="M16 2.25C16.2455 2.25 16.4496 2.42688 16.4919 2.66012L16.5 2.75V3.75H21C21.2761 3.75 21.5 3.97386 21.5 4.25V21.25C21.5 21.5261 21.2761 21.75 21 21.75H3C2.72386 21.75 2.5 21.5261 2.5 21.25V4.25C2.5 3.97386 2.72386 3.75 3 3.75H6.5V2.75C6.5 2.47386 6.72386 2.25 7 2.25C7.24546 2.25 7.44961 2.42688 7.49194 2.66012L7.5 2.75V3.75H15.5V2.75C15.5 2.47386 15.7239 2.25 16 2.25ZM16 6.25C16.2761 6.25 16.5 6.02614 16.5 5.75V4.75H20.5V7.26965H3.5V4.75H6.5V5.75L6.50806 5.83988C6.55039 6.07312 6.75454 6.25 7 6.25C7.27614 6.25 7.5 6.02614 7.5 5.75V4.75H15.5V5.75L15.5081 5.83988C15.5504 6.07312 15.7545 6.25 16 6.25ZM8.5 10.75C8.77614 10.75 9 10.9739 9 11.25C9 11.4955 8.82312 11.6996 8.58988 11.7419L8.5 11.75H5.5C5.22386 11.75 5 11.5261 5 11.25C5 11.0045 5.17688 10.8004 5.41012 10.7581L5.5 10.75H8.5ZM14 11.25C14 10.9739 13.7761 10.75 13.5 10.75H10.5L10.4101 10.7581C10.1769 10.8004 10 11.0045 10 11.25C10 11.5261 10.2239 11.75 10.5 11.75H13.5L13.5899 11.7419C13.8231 11.6996 14 11.4955 14 11.25ZM18.5 10.75C18.7761 10.75 19 10.9739 19 11.25C19 11.4955 18.8231 11.6996 18.5899 11.7419L18.5 11.75H15.5C15.2239 11.75 15 11.5261 15 11.25C15 11.0045 15.1769 10.8004 15.4101 10.7581L15.5 10.75H18.5ZM9 14.25C9 13.9739 8.77614 13.75 8.5 13.75H5.5L5.41012 13.7581C5.17688 13.8004 5 14.0045 5 14.25C5 14.5261 5.22386 14.75 5.5 14.75H8.5L8.58988 14.7419C8.82312 14.6996 9 14.4955 9 14.25ZM13.5 13.75C13.7761 13.75 14 13.9739 14 14.25C14 14.4955 13.8231 14.6996 13.5899 14.7419L13.5 14.75H10.5C10.2239 14.75 10 14.5261 10 14.25C10 14.0045 10.1769 13.8004 10.4101 13.7581L10.5 13.75H13.5ZM19 14.25C19 13.9739 18.7761 13.75 18.5 13.75H15.5L15.4101 13.7581C15.1769 13.8004 15 14.0045 15 14.25C15 14.5261 15.2239 14.75 15.5 14.75H18.5L18.5899 14.7419C18.8231 14.6996 19 14.4955 19 14.25ZM8.5 16.75C8.77614 16.75 9 16.9739 9 17.25C9 17.4955 8.82312 17.6996 8.58988 17.7419L8.5 17.75H5.5C5.22386 17.75 5 17.5261 5 17.25C5 17.0045 5.17688 16.8004 5.41012 16.7581L5.5 16.75H8.5ZM14 17.25C14 16.9739 13.7761 16.75 13.5 16.75H10.5L10.4101 16.7581C10.1769 16.8004 10 17.0045 10 17.25C10 17.5261 10.2239 17.75 10.5 17.75H13.5L13.5899 17.7419C13.8231 17.6996 14 17.4955 14 17.25ZM18.5 16.75C18.7761 16.75 19 16.9739 19 17.25C19 17.4955 18.8231 17.6996 18.5899 17.7419L18.5 17.75H15.5C15.2239 17.75 15 17.5261 15 17.25C15 17.0045 15.1769 16.8004 15.4101 16.7581L15.5 16.75H18.5ZM20.5 8.26965V20.75H3.5V8.26965H20.5Z" fill="#CF0209"/>
</svg>
