<svg width="24" height="24" viewBox="0 0 24 24" fill="none" xmlns="http://www.w3.org/2000/svg">
<path fill-rule="evenodd" clip-rule="evenodd" d="M6.50599 4.18254C6.21671 3.43923 5.14259 3.021 3.2417 2.75195L3.10156 3.74208L3.35067 3.77924C4.72569 3.99516 5.47859 4.29988 5.57407 4.54521C5.71425 4.90542 5.85819 5.64656 5.99745 6.74702H5.97785L7.01493 14.4538L7.0394 14.5897C7.19073 15.2581 7.76899 15.747 8.45242 15.747H18.1334L18.2684 15.7406C18.8916 15.681 19.41 15.2126 19.5489 14.5782L19.5931 14.3764L18.6162 14.1626L18.5721 14.3643L18.5472 14.4463C18.4756 14.6288 18.3121 14.747 18.1334 14.747H8.45242L8.37177 14.7389C8.18756 14.7016 8.03537 14.5387 8.00599 14.3204L7.12063 7.74702H19.4468L19.5264 7.7549C19.7339 7.79634 19.8981 7.99674 19.8981 8.24702C19.8981 8.28656 19.8938 8.32593 19.8854 8.36434L20.8623 8.57817L20.8822 8.46877C20.8928 8.3954 20.8981 8.32128 20.8981 8.24702C20.8981 7.42402 20.254 6.74702 19.4468 6.74702H7.00534C6.85164 5.49787 6.68839 4.65124 6.50599 4.18254ZM11.7216 18.747C11.7216 17.3663 10.6023 16.247 9.2216 16.247C7.84088 16.247 6.7216 17.3663 6.7216 18.747C6.7216 20.1277 7.84088 21.247 9.2216 21.247C10.6023 21.247 11.7216 20.1277 11.7216 18.747ZM7.7216 18.747C7.7216 17.9186 8.39317 17.247 9.2216 17.247C10.05 17.247 10.7216 17.9186 10.7216 18.747C10.7216 19.5754 10.05 20.247 9.2216 20.247C8.39317 20.247 7.7216 19.5754 7.7216 18.747ZM17.6716 16.247C19.0523 16.247 20.1716 17.3663 20.1716 18.747C20.1716 20.1277 19.0523 21.247 17.6716 21.247C16.2909 21.247 15.1716 20.1277 15.1716 18.747C15.1716 17.3663 16.2909 16.247 17.6716 16.247ZM17.6716 17.247C16.8432 17.247 16.1716 17.9186 16.1716 18.747C16.1716 19.5754 16.8432 20.247 17.6716 20.247C18.5001 20.247 19.1716 19.5754 19.1716 18.747C19.1716 17.9186 18.5001 17.247 17.6716 17.247ZM20.6917 9.34786L20.5181 10.3327L19.5332 10.159L19.7069 9.17421L20.6917 9.34786ZM20.1716 11.9019L20.3453 10.9171L19.3605 10.7434L19.1868 11.7282L20.1716 11.9019ZM20.0552 12.6383L19.8815 13.6231L18.8967 13.4495L19.0704 12.4647L20.0552 12.6383Z" fill="#CF0209"/>
</svg>
