<svg width="24" height="24" viewBox="0 0 24 24" fill="none" xmlns="http://www.w3.org/2000/svg">
<path fill-rule="evenodd" clip-rule="evenodd" d="M10.5569 18.464C11.0325 18.9189 11.5151 19.3804 12 19.8488C12.4949 19.3701 12.9836 18.9017 13.4623 18.4428C17.7097 14.3712 21.1667 11.0574 21.1667 8.06536C21.1667 5.15264 18.8883 3.82636 16.7717 3.82636C15.72 3.82636 13.325 4.21827 12 7.46482C10.6933 4.22809 8.3275 3.81818 7.23417 3.81818C5.39 3.81818 2.83333 4.96364 2.83333 8.06536C2.83333 11.0769 6.43111 14.5179 10.5569 18.464ZM12 5.65745C13.0667 3.86073 14.9358 3.00818 16.7717 3.00818C19.4208 3.00818 22 4.78364 22 8.06536C22 11.397 18.4573 14.7954 13.9891 19.0818C13.3428 19.7018 12.6771 20.3403 12 21C11.3217 20.3391 10.6549 19.6994 10.0074 19.0782C5.54136 14.7936 2 11.3961 2 8.06536C2 4.78936 4.58167 3 7.23417 3C9.065 3 10.9292 3.85255 12 5.65745Z" fill="#CF0209"/>
</svg>
