<svg width="24" height="24" viewBox="0 0 24 24" fill="none" xmlns="http://www.w3.org/2000/svg">
<path fill-rule="evenodd" clip-rule="evenodd" d="M22.5 12C22.5 6.2 17.8 1.5 12 1.5C6.2 1.5 1.5 6.2 1.5 12C1.5 17.8 6.2 22.5 11.9 22.4C13.4 22.4 14.9 22 16.3 21.4L15.9 20.5L15.6 20.7C14.4 21.1 13.2 21.4 11.9 21.4C6.7 21.4 2.4 17.1 2.4 11.9C2.4 6.7 6.7 2.4 11.9 2.4C17.1 2.4 21.4 6.7 21.4 11.9C21.4 13.4 21.1 14.9 20.4 16.2L21.3 16.7L21.5 16.4C22.2 15 22.5 13.5 22.5 12ZM19.0008 18.4004L19.7008 19.1004L19.0008 19.8004L18.3008 19.1004L19.0008 18.4004ZM20.9004 17.6L20.0004 17L19.4004 17.8L20.2004 18.4L20.9004 17.6ZM17.6008 19.5996L18.1008 20.3996L17.3008 20.9996L16.8008 20.1996L17.6008 19.5996ZM11.5 14V7H12.5V14H11.5ZM11.5 16V15H12.5V16H11.5Z" fill="#CF0209"/>
</svg>
