<svg width="24" height="24" viewBox="0 0 24 24" fill="none" xmlns="http://www.w3.org/2000/svg">
<path fill-rule="evenodd" clip-rule="evenodd" d="M22.5 12C22.5 6.20101 17.799 1.5 12 1.5C6.20101 1.5 1.5 6.20101 1.5 12C1.5 17.799 6.20101 22.5 12 22.5C12.5624 22.5 13.1195 22.4557 13.6675 22.3682C15.407 22.1136 17.0567 21.3268 18.6043 20.0182L17.9587 19.2546L17.6757 19.4865C16.4374 20.4702 15.1466 21.0836 13.7994 21.3329C15.2918 20.1811 16.4385 17.6388 16.8425 14.5H22V14.4898L22.1913 14.5373L22.2851 14.1233C22.4275 13.4299 22.5 12.7196 22.5 12ZM21.3823 13.5C21.4604 13.0075 21.5 12.5064 21.5 12C21.5 10.9333 21.3242 9.90772 21 8.95056V9H16.7711C16.9198 9.94704 17 10.9548 17 12C17 12.5098 16.9809 13.0107 16.9441 13.5H21.3823ZM15.9407 13.5C15.9796 13.0132 16 12.5122 16 12C16 10.9436 15.9131 9.93482 15.7571 9H8.24288C8.0869 9.93482 8 10.9436 8 12C8 12.5122 8.02043 13.0132 8.05926 13.5H15.9407ZM7.05588 13.5C7.01907 13.0107 7 12.5098 7 12C7 10.9548 7.08018 9.94704 7.2289 9H3V8.95056C2.6758 9.90772 2.5 10.9333 2.5 12C2.5 12.5104 2.54025 13.0114 2.61775 13.5H7.05588ZM10.1953 21.3288C6.63093 20.6434 3.77526 17.9657 2.83238 14.5H7.15752C7.56098 17.6351 8.7055 20.1752 10.1953 21.3288ZM15.8329 14.5C15.3152 18.2905 13.6718 21 12 21C10.3282 21 8.68481 18.2905 8.16708 14.5H15.8329ZM12 3C13.4416 3 14.8621 5.01471 15.5579 8H8.44209C9.1379 5.01471 10.5584 3 12 3ZM13.8047 2.67119C15.0486 3.63444 16.0518 5.56428 16.584 8H20.6194C19.3535 5.27695 16.8353 3.25399 13.8047 2.67119ZM10.1953 2.67119C8.95137 3.63444 7.94815 5.56428 7.41604 8H3.38065C4.64648 5.27695 7.16473 3.25399 10.1953 2.67119ZM20.9716 14.9541L21.9279 15.2464L21.6355 16.2027L20.6792 15.9104L20.9716 14.9541ZM20.2894 16.6406L21.1641 17.1254L20.6792 18L19.8046 17.5152L20.2894 16.6406ZM19.3075 17.9888L20.0506 18.6579L19.3815 19.401L18.6384 18.7319L19.3075 17.9888Z" fill="#CF0209"/>
</svg>
