<svg width="24" height="24" viewBox="0 0 24 24" fill="none" xmlns="http://www.w3.org/2000/svg">
<path fill-rule="evenodd" clip-rule="evenodd" d="M10 3C13.866 3 17 6.13401 17 10C17 11.6724 16.4135 13.2079 15.435 14.4118L16.2421 15.1294L15.5778 15.8768L14.7505 15.1414C13.5025 16.295 11.8336 17 10 17C6.13401 17 3 13.866 3 10C3 6.13401 6.13401 3 10 3ZM10 4C6.68629 4 4 6.68629 4 10C4 13.3137 6.68629 16 10 16C13.3137 16 16 13.3137 16 10C16 6.68629 13.3137 4 10 4ZM10 5C12.7614 5 15 7.23858 15 10C15 12.7614 12.7614 15 10 15C7.23858 15 5 12.7614 5 10C5 7.23858 7.23858 5 10 5ZM10 6C7.79086 6 6 7.79086 6 10C6 12.2091 7.79086 14 10 14C12.2091 14 14 12.2091 14 10C14 7.79086 12.2091 6 10 6ZM17.7511 16.4337L17.095 17.1884L16.3403 16.5323L16.9963 15.7776L17.7511 16.4337ZM19.2605 17.7458L18.6044 18.5005L17.8497 17.8445L18.5058 17.0897L19.2605 17.7458ZM20.7699 19.0579L20.1138 19.8126L19.3591 19.1566L20.0152 18.4019L20.7699 19.0579Z" fill="#CF0209"/>
</svg>
