<svg width="24" height="24" viewBox="0 0 24 24" fill="none" xmlns="http://www.w3.org/2000/svg">
<path fill-rule="evenodd" clip-rule="evenodd" d="M21.8109 10.9822C21.8109 12.8429 20.1306 14.3644 18.2809 14.4757V14.9257H17.2809V7.83333C17.2809 5.18821 15.394 3 12.0609 3C8.80909 3 6.47337 5.08277 6.34761 7.64063L6.34288 7.83333V14.9257H5.34288V14.4512C3.57211 14.2777 2.18848 12.7844 2.18848 10.9681C2.18848 9.14786 3.57793 7.6522 5.35406 7.48384C5.55185 4.40365 8.35345 2 12.0609 2C15.7701 2 18.0769 4.4059 18.2694 7.48815C20.1082 7.59428 21.8109 9.11806 21.8109 10.9822ZM18.2809 13.473C19.5667 13.3633 20.8109 12.2901 20.8109 10.9822C20.8109 9.6738 19.5844 8.60013 18.2809 8.49132V13.473ZM3.18848 10.9681C3.18848 9.70461 4.12572 8.66006 5.34288 8.49176V13.4444C4.12572 13.2761 3.18848 12.2315 3.18848 10.9681ZM12.8109 18.75C13.464 18.75 14.0196 19.1674 14.2256 19.75H16.3109V20.75H14.2256C14.0196 21.3326 13.464 21.75 12.8109 21.75H11.8109C10.9825 21.75 10.3109 21.0784 10.3109 20.25C10.3109 19.4216 10.9825 18.75 11.8109 18.75H12.8109ZM12.9008 19.7581C13.134 19.8004 13.3109 20.0045 13.3109 20.25C13.3109 20.5261 13.0871 20.75 12.8109 20.75H11.8109L11.721 20.7419C11.4878 20.6996 11.3109 20.4955 11.3109 20.25C11.3109 19.9739 11.5348 19.75 11.8109 19.75H12.8109L12.9008 19.7581ZM17.3109 15.75H18.3109V16.75H17.3109V15.75ZM18.3109 17.75H17.3109V18.75H18.3109V17.75ZM17.3109 19.75H18.3109V20.75H17.3109V19.75Z" fill="#CF0209"/>
</svg>
