<svg width="117" height="36" viewBox="0 0 117 36" fill="none" xmlns="http://www.w3.org/2000/svg">
<path fill-rule="evenodd" clip-rule="evenodd" d="M92.3509 8.86033H87.2196V11.0823H91.9491C92.2172 11.0823 92.3509 10.9433 92.3509 10.6642V8.86033ZM87.2196 7.36149H92.3509V5.50033C92.3382 5.25994 92.2172 5.13917 91.9856 5.13917H87.5842C87.3287 5.15233 87.207 5.2793 87.2196 5.51969V7.36149ZM91.0365 15.6581C92.1919 14.7218 93.0814 13.905 93.7021 13.2082L94.6884 14.3288C93.9456 15.1774 92.9715 16.0634 91.767 16.9867C92.6796 18.1766 93.7747 19.1962 95.0537 20.0439L93.7021 21.1452C92.3509 20.0567 91.4922 19.2465 91.127 18.7143C89.7519 17.0567 89.0024 15.0128 88.8814 12.5823H87.2196V18.9992C88.2536 18.6705 89.1364 18.3477 89.8673 18.0307L90.3607 19.5307C88.887 20.2143 87.067 20.7899 84.9 21.2579L84.48 19.7203C84.8944 19.6069 85.3013 19.5055 85.7031 19.4172V4.09517C85.7031 3.79207 85.8491 3.63956 86.1417 3.63956H93.4102C93.7144 3.63956 93.867 3.79207 93.867 4.09517V12.0883C93.8547 12.4185 93.6965 12.5823 93.3915 12.5823H90.3972C90.494 13.8225 90.707 14.8479 91.0365 15.6581ZM83.494 13.8918L84.7723 14.3664C84.5407 15.2652 84.2551 16.1896 83.9144 17.1392L82.6715 16.5876C83.0614 15.5633 83.3354 14.6645 83.494 13.8918ZM80.6635 18.7716V12.9616H77.8873V11.462H80.6635V9.46846H78.6908V7.96807H84.1881V9.46846H82.1785V11.462H84.7723V12.9616H82.1785V18.4108C83.3469 18.0825 84.1207 17.8603 84.4982 17.7469L84.8084 19.2845C82.0571 20.0439 79.8231 20.5557 78.1063 20.822L77.9052 19.2845C78.7452 19.1459 79.6652 18.974 80.6635 18.7716ZM77.5764 14.3095L78.9645 13.8732C79.3662 14.8611 79.6831 16.0824 79.9147 17.5375L78.4901 17.8983C78.222 16.3541 77.9175 15.1584 77.5764 14.3095ZM82.0512 4.58833C81.3329 5.5762 80.2424 6.6202 78.7817 7.72149L77.4118 6.75375C79.4452 5.46278 80.7722 4.22794 81.3936 3.05078H82.8357C82.7996 3.15297 82.7575 3.25981 82.7087 3.37439L82.7445 3.3353C83.5729 4.15865 84.4308 4.91814 85.3196 5.61375L84.1333 6.73401C83.3775 6.03762 82.6838 5.32343 82.0512 4.58833ZM67.1201 19.6797H62.7015C62.4457 19.0728 62.2558 18.6489 62.1352 18.4081H67.7233C67.5282 18.8258 67.3271 19.2493 67.1201 19.6797ZM59.4134 16.2055H70.4808C70.5285 16.2055 70.5538 16.2245 70.5538 16.2628V17.0595C70.5538 17.0982 70.5285 17.123 70.4808 17.1361H59.4134C59.365 17.123 59.3468 17.0982 59.3587 17.0595V16.2628C59.3468 16.2245 59.365 16.2055 59.4134 16.2055ZM66.3538 9.78787H68.0707V10.7572H65.5678V3.2378H64.1254V10.7572H61.8426V9.78787H63.3766V8.59174H61.8426V7.58567H63.3032V6.38954H61.8426V5.45935H63.3032V4.26322H61.8426V3.2378H60.5457V4.26322H58.9026V5.45935H60.5457V6.38954H58.9759V7.58567H60.5457V8.59174H58.9026V9.78787H60.5457V10.7572H58.5552C58.4088 10.7572 58.3362 10.6743 58.3362 10.5098V3.48477H56.893V11.4024C56.893 11.8197 57.0881 12.0284 57.4776 12.0284H72.4166C72.8184 12.0284 73.0191 11.8197 73.0191 11.4024V3.48477H71.5766V10.5098C71.5766 10.6743 71.497 10.7572 71.3387 10.7572H69.3668V9.78787H70.8271V8.59174H69.3668V7.66154H70.8271V6.46541H69.3668V5.45935H70.9008V4.26322H69.3668V3.16154H68.0707V4.26322H66.3538V5.45935H68.0707V6.46541H66.3538V7.66154H68.0707V8.59174H66.3538V9.78787ZM73.3114 14.1547H56.6376V12.8835H73.3114V14.1547ZM60.9296 19.1676C61.0022 19.3314 61.0759 19.5032 61.1485 19.6797H56.1997V21.0276H73.6766V19.6797H68.7092C68.7576 19.5535 68.8191 19.4262 68.8917 19.3C69.0499 18.9466 69.1717 18.6489 69.257 18.4081H71.6682C71.7892 18.4081 71.8503 18.345 71.8503 18.2181V15.1043C71.8503 14.9904 71.7892 14.9328 71.6682 14.9328H58.2264C58.1169 14.9328 58.0622 14.9904 58.0622 15.1043V18.2181C58.0622 18.345 58.1169 18.4081 58.2264 18.4081H60.5643C60.6492 18.6102 60.771 18.8641 60.9296 19.1676ZM51.1266 6.69974L52.2771 7.85871C51.3273 9.07381 50.0423 10.3524 48.4234 11.6933L47.3462 10.4588C49.05 9.01613 50.31 7.7631 51.1266 6.69974ZM38.069 4.99071L38.3058 3.30103C39.1704 3.36452 40.723 3.536 42.963 3.81432C45.1177 4.0551 47.0353 4.36478 48.7157 4.74452L48.3686 6.41523C45.1911 5.65613 41.7578 5.18116 38.069 4.99071ZM45.0816 12.529V18.8511C45.0816 19.611 44.8258 20.2056 44.3146 20.6356C43.9367 20.9902 43.3037 21.1679 42.4149 21.1679C41.4044 21.1551 40.4184 21.0285 39.4567 20.7881L39.3469 18.9649C41.2342 19.5099 42.4332 19.6489 42.9444 19.3822C43.2486 19.1294 43.4068 18.7563 43.4199 18.2623V8.84542C43.4199 8.66852 43.3279 8.57949 43.1458 8.57949H36.0055V6.92736H44.5704C44.923 6.94052 45.0932 7.13716 45.0816 7.51652V8.18078C45.8971 10.6621 46.7493 12.5732 47.6381 13.9145C48.7213 15.5604 50.3283 17.2059 52.4592 18.8511L51.0346 19.9714C48.3928 17.744 46.4086 15.2631 45.0816 12.529ZM35.5118 10.4972H41.922L42.3971 11.1425C41.9826 14.2063 39.8767 16.9903 36.0777 19.4968L34.8542 18.0726C36.2788 17.3139 37.3742 16.5862 38.1416 15.8898C38.7865 15.3068 39.3897 14.5985 39.9497 13.7631C40.3514 13.1298 40.5767 12.6936 40.6255 12.4528C40.662 12.3641 40.662 12.2948 40.6255 12.2445C40.5402 12.1806 40.4062 12.1489 40.2237 12.1489H35.5118V10.4972ZM75.8976 35.5406H77.8639V28.1827H75.8976V35.5406ZM77.9171 26.5421C77.9171 26.8487 77.817 27.1054 77.6159 27.3132C77.4141 27.5219 77.1691 27.626 76.8805 27.626C76.5968 27.626 76.3529 27.5219 76.1496 27.3132C75.946 27.1054 75.8439 26.8487 75.8439 26.5421C75.8439 26.2437 75.946 25.9917 76.1496 25.7838C76.3529 25.5748 76.5968 25.4703 76.8805 25.4703C77.1691 25.4703 77.4141 25.5748 77.6159 25.7838C77.817 25.9917 77.9171 26.2437 77.9171 26.5421ZM73.6296 34.9327C74.285 34.445 74.613 33.689 74.613 32.6655C74.613 31.9955 74.4358 31.4183 74.0817 30.9344C73.7272 30.4506 73.1326 30.0495 72.297 29.7344C71.3997 29.3934 70.8598 29.136 70.6751 28.9606C70.4908 28.7856 70.3988 28.5275 70.3988 28.1864C70.3988 27.9151 70.5214 27.689 70.7678 27.5078C71.0128 27.3282 71.4138 27.2369 71.9698 27.2369C72.3637 27.2369 72.7342 27.2702 73.0819 27.3371C73.4293 27.4049 73.7797 27.4827 74.1312 27.5702V26.1104C73.9636 26.0419 73.6725 25.9653 73.2562 25.8785C72.8407 25.7915 72.3726 25.7489 71.8521 25.7489C70.7794 25.7489 69.939 26.0044 69.3302 26.5165C68.7229 27.0282 68.4184 27.6557 68.4184 28.3974C68.4184 29.1735 68.6068 29.7871 68.9843 30.2369C69.3608 30.6867 69.8943 31.0567 70.5828 31.3471C71.447 31.7063 71.9716 31.9935 72.1556 32.2111C72.3402 32.4282 72.4326 32.6783 72.4326 32.9593C72.4326 33.3952 72.3045 33.7072 72.0479 33.8957C71.7925 34.0842 71.3245 34.1775 70.645 34.1775C70.1613 34.1775 69.6702 34.1152 69.1701 33.9894C68.6704 33.8644 68.3044 33.7281 68.071 33.5795V35.2343C68.37 35.3593 68.7486 35.4623 69.2077 35.544C69.6665 35.6249 70.2291 35.6663 70.897 35.6663C72.064 35.6663 72.9751 35.4216 73.6296 34.9327ZM39.2477 32.3634C39.2477 31.8427 39.1115 31.4328 38.8397 31.1343C38.5675 30.8355 38.1225 30.6861 37.5048 30.6861H36.7992V34.149H37.6154C38.2045 34.149 38.6233 33.9969 38.8735 33.6919C39.1226 33.3872 39.2477 32.9436 39.2477 32.3634ZM38.6989 28.3615C38.6989 27.9795 38.601 27.7027 38.404 27.5328C38.2071 27.3628 37.9118 27.2773 37.5186 27.2773H36.7992V29.4063H37.5309C37.9568 29.4063 38.2584 29.3115 38.4342 29.1226C38.611 28.9333 38.6989 28.6797 38.6989 28.3615ZM41.3217 32.4733C41.3217 33.4507 41.0279 34.2063 40.4415 34.739C39.8543 35.2739 39.0441 35.5406 38.0105 35.5406H34.7793V25.8876H38.0697C39.0087 25.8876 39.6759 26.0587 40.0721 26.4005C40.4683 26.7446 40.666 27.2227 40.666 27.8359C40.666 28.3763 40.5439 28.8028 40.2996 29.116C40.0554 29.4292 39.6812 29.6351 39.1766 29.7326C39.7999 29.8174 40.3134 30.0965 40.7163 30.568C41.1195 31.0403 41.3217 31.6747 41.3217 32.4733ZM46.7363 33.0683V32.8698C46.7363 32.4261 46.6366 32.089 46.4366 31.8556C46.2363 31.6241 45.9407 31.5072 45.549 31.5072C45.1815 31.5072 44.8903 31.6167 44.6762 31.8362C44.4621 32.0565 44.3549 32.4049 44.3549 32.8829V33.0819C44.3549 33.5812 44.4681 33.9138 44.6952 34.0806C44.9216 34.2482 45.2098 34.3307 45.5612 34.3307C45.8632 34.3307 46.1343 34.2285 46.3752 34.026C46.6161 33.8232 46.7363 33.505 46.7363 33.0683ZM48.623 35.5403H46.7855L46.7498 34.5745C46.5978 34.8823 46.3443 35.1335 45.9876 35.3294C45.6309 35.526 45.2157 35.6232 44.7402 35.6232C43.9576 35.6232 43.3652 35.4196 42.9638 35.01C42.562 34.6005 42.3614 33.98 42.3614 33.1489V33.0203C42.3614 32.1974 42.6298 31.5633 43.1664 31.1181C43.7029 30.673 44.4237 30.4492 45.3285 30.4492C45.6029 30.4492 45.8729 30.4911 46.1395 30.5731C46.4057 30.6556 46.6004 30.7578 46.7229 30.8809V30.1566C46.7229 29.905 46.6127 29.6917 46.3916 29.5167C46.17 29.3402 45.8569 29.2535 45.451 29.2535C45.0169 29.2535 44.6297 29.3038 44.2897 29.4049C43.9501 29.5055 43.6552 29.6317 43.405 29.7819V28.5296C43.7286 28.3934 44.0901 28.2749 44.49 28.177C44.8892 28.0787 45.374 28.0291 45.9433 28.0291C46.8566 28.0291 47.532 28.244 47.9688 28.6725C48.4044 29.101 48.623 29.7869 48.623 30.7287V35.5403ZM54.5661 35.5407H56.5328V30.3776C56.5328 29.5852 56.3637 28.9953 56.026 28.609C55.6883 28.2223 55.2247 28.0295 54.6361 28.0295C54.0507 28.0295 53.554 28.163 53.1471 28.4294C52.7397 28.6961 52.4649 29.0042 52.3212 29.3538L52.2844 28.1828H50.3914V35.5407H52.3585V30.2499C52.5093 30.0567 52.6924 29.898 52.9069 29.7741C53.1214 29.6499 53.3697 29.5876 53.652 29.5876C53.9465 29.5876 54.1721 29.6704 54.33 29.8372C54.4868 30.0037 54.5661 30.1829 54.5661 30.3745V35.5407ZM64.8922 35.5406H62.5837L60.3299 32.5426V35.5406H58.3632V25.8876H60.3299V31.168L62.6932 28.1827H64.5042L61.7787 31.4552L64.8922 35.5406ZM83.8511 35.5407H85.8174V30.3776C85.8174 29.5852 85.6484 28.9953 85.3114 28.609C84.9737 28.2223 84.5101 28.0295 83.9203 28.0295C83.3354 28.0295 82.8394 28.163 82.4321 28.4294C82.0244 28.6961 81.7496 29.0042 81.6063 29.3538L81.569 28.1828H79.6764V35.5407H81.6427V30.2499C81.7943 30.0567 81.9775 29.898 82.1923 29.7741C82.4068 29.6499 82.6555 29.5876 82.9377 29.5876C83.2319 29.5876 83.4575 29.6704 83.6143 29.8372C83.7722 30.0037 83.8511 30.1829 83.8511 30.3745V35.5407ZM92.438 31.9022V31.7927C92.438 30.7982 92.2902 30.1193 91.9953 29.7565C91.7004 29.3934 91.3393 29.2115 90.9133 29.2115C90.4665 29.2115 90.1035 29.4062 89.8223 29.7941C89.5416 30.1835 89.4009 30.8505 89.4009 31.7927V31.9022C89.4009 32.9393 89.5371 33.6291 89.8093 33.9713C90.0826 34.3123 90.4497 34.4834 90.9133 34.4834C91.3314 34.4834 91.6893 34.3169 91.9901 33.9836C92.2884 33.6504 92.438 32.9567 92.438 31.9022ZM94.458 32.0811C94.458 33.2218 94.143 34.1118 93.5141 34.7505C92.8845 35.388 92.0199 35.707 90.9215 35.707C89.8309 35.707 88.9637 35.3811 88.3192 34.7269C87.6758 34.0738 87.3541 33.1924 87.3541 32.0811V31.6138C87.3541 30.5288 87.6717 29.654 88.3073 28.987C88.9429 28.3212 89.8101 27.9883 90.9092 27.9883C92.0162 27.9883 92.8845 28.3227 93.5141 28.994C94.143 29.6644 94.458 30.5381 94.458 31.6138V32.0811ZM100.014 28.3697V29.2975C100.014 29.6223 99.903 29.8728 99.6807 30.0481C99.458 30.2235 99.1832 30.3106 98.8537 30.3106H98.0878V27.292H98.7424C99.1951 27.292 99.5202 27.3795 99.7175 27.5552C99.9153 27.7306 100.014 28.0019 100.014 28.3697ZM101.434 31.007C101.914 30.592 102.155 29.973 102.155 29.1532V28.3921C102.155 27.7259 101.959 27.1418 101.568 26.6405C101.175 26.1381 100.481 25.8876 99.4833 25.8876H96.0005V35.5406H98.0878V31.6325H99.3512C100.259 31.6325 100.953 31.4243 101.434 31.007ZM107.294 33.0687V32.8701C107.294 32.4265 107.193 32.0894 106.993 31.8559C106.793 31.6245 106.497 31.5076 106.106 31.5076C105.738 31.5076 105.447 31.6171 105.233 31.8366C105.019 32.0568 104.912 32.4052 104.912 32.8833V33.0823C104.912 33.5816 105.025 33.9141 105.252 34.081C105.478 34.2486 105.767 34.331 106.118 34.331C106.42 34.331 106.692 34.2288 106.932 34.0264C107.174 33.8236 107.294 33.5054 107.294 33.0687ZM109.18 35.5407H107.343L107.307 34.5749C107.155 34.8827 106.901 35.1339 106.544 35.3298C106.188 35.5264 105.772 35.6236 105.297 35.6236C104.515 35.6236 103.922 35.4199 103.52 35.0104C103.119 34.6008 102.919 33.9803 102.919 33.1492V33.0207C102.919 32.1978 103.187 31.5637 103.723 31.1185C104.259 30.6734 104.981 30.4496 105.885 30.4496C106.16 30.4496 106.43 30.4914 106.697 30.5735C106.962 30.6559 107.157 30.7581 107.281 30.8812V30.157C107.281 29.9054 107.17 29.6921 106.948 29.5171C106.727 29.3406 106.414 29.2539 106.008 29.2539C105.574 29.2539 105.186 29.3042 104.847 29.4052C104.507 29.5059 104.212 29.6321 103.962 29.7823V28.53C104.286 28.3938 104.648 28.2753 105.047 28.1774C105.446 28.079 105.931 28.0295 106.5 28.0295C107.414 28.0295 108.089 28.2443 108.525 28.6728C108.962 29.1014 109.18 29.7873 109.18 30.7291V35.5407ZM115.605 35.4813C115.99 35.3304 116.222 35.22 116.3 35.1511V33.746C116.165 33.8706 115.916 33.9956 115.551 34.1184C115.187 34.2411 114.812 34.303 114.428 34.303C113.855 34.303 113.44 34.1215 113.182 33.7576C112.924 33.3953 112.795 32.7782 112.795 31.9061V31.7722C112.795 30.9953 112.953 30.3836 113.27 29.9365C113.588 29.4906 114.045 29.2676 114.643 29.2676C114.987 29.2676 115.305 29.323 115.597 29.4356C115.89 29.5479 116.124 29.6873 116.3 29.8514V28.5445C116.165 28.4094 115.917 28.2825 115.556 28.1656C115.195 28.046 114.792 27.9883 114.344 27.9883C113.212 27.9883 112.315 28.3251 111.651 29.0002C110.986 29.6749 110.654 30.5714 110.654 31.6905V32.0044C110.654 33.2393 110.993 34.1644 111.669 34.7815C112.345 35.3989 113.256 35.707 114.4 35.707C114.818 35.707 115.22 35.6315 115.605 35.4813ZM115.511 5.77127H105.632V4.11953H115.511V5.77127ZM105.047 10.3278H111.731V18.6248C111.731 18.8904 111.677 19.0739 111.566 19.1753C111.201 19.4908 110.611 19.5995 109.795 19.4973C108.882 19.334 107.951 19.1064 107.002 18.8149L106.964 20.5429C109.63 21.3523 111.469 21.4162 112.481 20.7326C113.027 20.3528 113.308 19.7954 113.32 19.0619V10.3278H116.242V8.67605H105.047V10.3278ZM103.696 3.83424L102.216 3.24546C101.522 5.22043 100.439 6.89772 98.9654 8.27734L100.317 9.24547C101.595 8.0683 102.721 6.26443 103.696 3.83424ZM100.134 14.8278C100.511 14.486 100.919 14.0811 101.358 13.6127V21.1882H102.948V11.4674C103.397 10.7327 103.866 9.85321 104.353 8.82779L102.91 8.14456C102.022 10.3092 100.664 12.1816 98.8381 13.764L100.134 14.8278Z" fill="#231916"/>
<path fill-rule="evenodd" clip-rule="evenodd" d="M26.2138 13.6266C26.2138 21.1521 20.3465 27.2528 13.1075 27.2528C5.86845 27.2528 0 21.1521 0 13.6266C0 6.09987 5.86845 0 13.1075 0C20.3465 0 26.2138 6.09987 26.2138 13.6266Z" fill="#E62511"/>
<path fill-rule="evenodd" clip-rule="evenodd" d="M17.8396 8.32735H14.563V20.4391H11.6502V11.3555H3.64043V8.32727H14.5623V4.9209H17.8396V8.32735ZM2.91211 17.4111V14.3836H8.73699V20.4393H5.82455V17.4111H2.91211ZM17.4752 20.4392V11.3556H24.0284V14.3831H20.3876V20.4392H17.4752Z" fill="#FEFEFE"/>
</svg>
